<svg width="50" height="50" viewBox="0 0 50 50" fill="none" xmlns="http://www.w3.org/2000/svg">
<path d="M10.3852 5.07812C7.5322 5.07812 5.42119 7.57516 5.51568 10.2832C5.60636 12.8849 5.48856 16.2544 4.64025 19.0023C3.78941 21.7582 2.35042 23.504 0 23.7281V26.2586C2.35042 26.4828 3.78941 28.2285 4.64025 30.9845C5.48856 33.7324 5.60636 37.1019 5.51568 39.7035C5.42119 42.4112 7.5322 44.9086 10.3856 44.9086H39.6186C42.4716 44.9086 44.5822 42.4116 44.4877 39.7035C44.397 37.1019 44.5148 33.7324 45.3631 30.9845C46.2144 28.2285 47.6496 26.4828 50 26.2586V23.7281C47.6496 23.504 46.2144 21.7582 45.3631 19.0023C44.5148 16.2548 44.397 12.8849 44.4877 10.2832C44.5822 7.57558 42.4716 5.07812 39.6186 5.07812H10.3847H10.3852ZM33.8983 29.5963C33.8983 33.3252 31.1169 35.5866 26.5013 35.5866H18.6441C18.176 35.5866 17.7966 35.2072 17.7966 34.7391V15.2476C17.7966 14.7796 18.176 14.4002 18.6441 14.4002H26.4564C30.3051 14.4002 32.8309 16.4849 32.8309 19.6858C32.8309 21.9324 31.1318 23.9438 28.9669 24.2959V24.4133C31.914 24.7366 33.8983 26.7773 33.8983 29.5963ZM25.6445 17.0866H21.1644V23.4146H24.9377C27.8547 23.4146 29.4631 22.24 29.4631 20.1404C29.4631 18.173 28.0801 17.0866 25.6445 17.0866ZM21.1644 25.9256V32.8993H25.8093C28.8462 32.8993 30.4551 31.6807 30.4551 29.3904C30.4551 27.0997 28.8013 25.9252 25.614 25.9252H21.1644V25.9256Z" fill="#7E13F8"/>
<path d="M33.8983 29.5963C33.8983 33.3251 31.1169 35.5866 26.5013 35.5866H18.6441C18.176 35.5866 17.7966 35.2072 17.7966 34.7391V15.2476C17.7966 14.7796 18.176 14.4001 18.6441 14.4001H26.4563C30.3051 14.4001 32.8309 16.4849 32.8309 19.6857C32.8309 21.9324 31.1318 23.9438 28.9669 24.2959V24.4133C31.914 24.7366 33.8983 26.7773 33.8983 29.5963ZM25.6445 17.0866H21.1644V23.4146H24.9377C27.8547 23.4146 29.4631 22.24 29.4631 20.1404C29.4631 18.173 28.0801 17.0866 25.6445 17.0866ZM21.1644 25.9256V32.8993H25.8093C28.8462 32.8993 30.4551 31.6807 30.4551 29.3904C30.4551 27.0997 28.8013 25.9251 25.614 25.9251H21.1644V25.9256Z" fill="white"/>
</svg>
