<svg width="50" height="50" viewBox="0 0 50 50" fill="none" xmlns="http://www.w3.org/2000/svg">
<path fill-rule="evenodd" clip-rule="evenodd" d="M49.0569 22.7726L27.2262 0.943075C25.9699 -0.314359 23.9307 -0.314359 22.6727 0.943075L18.1396 5.47631L23.8901 11.2269C25.2265 10.7754 26.7588 11.0783 27.8242 12.1437C28.8945 13.2157 29.1951 14.7611 28.7327 16.102L34.2747 21.6441C35.6155 21.1822 37.1626 21.4812 38.2335 22.5537C39.7301 24.0498 39.7301 26.4747 38.2335 27.9719C36.7363 29.469 34.3115 29.469 32.8138 27.9719C31.688 26.845 31.4099 25.1915 31.9799 23.8046L26.8114 18.636L26.8109 32.2374C27.1757 32.4184 27.5202 32.6593 27.8242 32.9621C29.3208 34.4582 29.3208 36.8831 27.8242 38.3814C26.327 39.878 23.9011 39.878 22.4061 38.3814C20.9095 36.8831 20.9095 34.4582 22.4061 32.9621C22.7759 32.5929 23.2038 32.3136 23.6602 32.126V18.3979C23.2038 18.2114 22.7764 17.9338 22.4061 17.5618C21.2721 16.4295 20.9995 14.7655 21.5805 13.3731L15.9122 7.7037L0.943469 22.6717C-0.31449 23.9302 -0.31449 25.9694 0.943469 27.2268L22.7742 49.0569C24.0311 50.3144 26.0697 50.3144 27.3282 49.0569L49.0569 27.3283C50.3144 26.0704 50.3144 24.03 49.0569 22.7726Z" fill="#DE4C36"/>
</svg>
