<svg width="150" height="150" viewBox="0 0 150 150" fill="none" xmlns="http://www.w3.org/2000/svg">
<path fill-rule="evenodd" clip-rule="evenodd" d="M0 0H150V150H0V0V0Z" fill="#F7DF1E"/>
<path fill-rule="evenodd" clip-rule="evenodd" d="M39.4406 125.351L50.9196 118.404C53.1341 122.33 55.1487 125.653 59.9808 125.653C64.6127 125.653 67.533 123.841 67.533 116.793V68.8645H81.6291V116.992C81.6291 131.592 73.0711 138.238 60.5851 138.238C49.3087 138.238 42.763 132.398 39.4403 125.35" fill="black"/>
<path fill-rule="evenodd" clip-rule="evenodd" d="M89.2857 123.841L100.763 117.195C103.785 122.129 107.712 125.754 114.659 125.754C120.5 125.754 124.224 122.834 124.224 118.806C124.224 113.973 120.398 112.261 113.954 109.443L110.431 107.931C100.26 103.602 93.5141 98.1653 93.5141 86.6865C93.5141 76.1141 101.569 68.0586 114.156 68.0586C123.117 68.0586 129.561 71.1803 134.192 79.3362L123.217 86.3841C120.8 82.0548 118.183 80.3434 114.156 80.3434C110.028 80.3434 107.41 82.9612 107.41 86.3841C107.41 90.6131 110.028 92.3253 116.068 94.9434L119.592 96.4536C131.574 101.589 138.321 106.824 138.321 118.605C138.321 131.292 128.353 138.239 114.961 138.239C101.872 138.239 93.4136 131.997 89.286 123.841" fill="black"/>
</svg>
