<svg width="50" height="50" viewBox="0 0 50 50" fill="none" xmlns="http://www.w3.org/2000/svg">
<path d="M44.7825 24.618C44.7825 22.0477 42.6989 19.964 40.1285 19.964C39.9632 19.964 39.8001 19.9729 39.6394 19.9897L46.0316 1.1366H18.8668L25.2501 19.9734C25.1565 19.9677 25.0623 19.964 24.9673 19.964C22.397 19.964 20.3133 22.0477 20.3133 24.618C20.3133 26.6957 21.6749 28.4545 23.5541 29.053C22.5616 30.7723 21.3126 32.3207 19.8946 33.6586C17.9665 35.4776 15.7598 36.8568 13.3731 37.7068C10.5316 36.247 9.18962 33.0006 10.4005 30.1541C10.5371 29.8326 10.6768 29.5068 10.8102 29.1824C12.8689 28.702 14.4028 26.8565 14.4028 24.6514C14.4028 22.0811 12.3192 19.9975 9.74874 19.9975C7.17842 19.9975 5.09471 22.0811 5.09471 24.6514C5.09471 26.2276 5.879 27.6198 7.07772 28.4617C5.92583 31.0844 4.23255 33.8292 3.70503 37.0105C3.07282 40.823 3.70298 44.87 7.00042 47.1555C14.6799 52.478 23.0159 43.8559 31.8051 41.6885C34.9905 40.9029 38.4869 41.0296 41.2933 39.4042C43.4008 38.1835 44.7901 36.1607 45.1844 33.8897C45.574 31.6461 45.0061 29.4124 43.7001 27.6011C44.3756 26.7933 44.7825 25.7534 44.7825 24.618Z" fill="#99425B"/>
<path d="M44.0646 33.6951C43.7222 35.6668 42.5045 37.389 40.7236 38.4206C39.0635 39.382 37.0742 39.6691 34.9679 39.9728C33.8396 40.1354 32.6728 40.3038 31.533 40.5849C28.5191 41.328 25.6 42.778 22.777 44.1802C17.1274 46.9864 12.2485 49.4095 7.64795 46.2212C4.27811 43.8856 4.43372 39.5644 4.82632 37.1964C5.19016 35.0025 6.17382 32.9821 7.12509 31.0281C7.28945 30.6903 7.45051 30.3587 7.60726 30.03C8.07874 30.2183 8.58024 30.3469 9.10298 30.4053C8.13467 33.601 9.65744 37.0758 12.8537 38.7178L13.2911 38.9425L13.7544 38.7776C16.2812 37.8777 18.6095 36.4337 20.6747 34.4852C22.0096 33.2258 23.1574 31.8325 24.1007 30.3437C24.3835 30.3863 24.6728 30.4087 24.9673 30.4087C27.9008 30.4087 30.33 28.2157 30.7059 25.3832C31.9067 25.3392 33.1821 25.3389 34.3898 25.3828C34.7655 28.2154 37.1949 30.4087 40.1285 30.4087C41.355 30.4087 42.4928 30.0243 43.4301 29.3713C44.0808 30.7033 44.3237 32.2021 44.0646 33.6951ZM9.74872 21.1341C11.6883 21.1341 13.2661 22.712 13.2661 24.6514C13.2661 25.3481 13.0617 25.9977 12.7107 26.5448C12.1259 27.4566 11.1324 28.0816 9.99037 28.1596C9.91046 28.1651 9.82999 28.1688 9.74872 28.1688C9.31656 28.1688 8.90248 28.0899 8.51965 27.9468C7.74525 27.657 7.09997 27.1014 6.69407 26.3919C6.40025 25.8782 6.23134 25.2843 6.23134 24.6514C6.23134 22.712 7.80924 21.1341 9.74872 21.1341ZM21.4499 24.618C21.4499 22.8559 22.7525 21.3927 24.4452 21.1396C24.6156 21.1141 24.79 21.1006 24.9673 21.1006C26.0949 21.1006 27.0987 21.6349 27.7427 22.4626C27.9027 22.6682 28.0415 22.8913 28.1532 23.1296C28.3654 23.582 28.4847 24.0862 28.4847 24.618C28.4847 24.8992 28.4506 25.1726 28.3879 25.4348C28.0451 26.8699 26.8215 27.9666 25.3222 28.1176C25.2055 28.1293 25.0871 28.1354 24.9673 28.1354C24.2651 28.1354 23.6108 27.9277 23.061 27.5717C22.0926 26.9444 21.4499 25.8552 21.4499 24.618ZM36.1302 20.4355C35.3767 21.1565 34.8163 22.0776 34.5372 23.1134C33.2348 23.0646 31.8536 23.0646 30.5586 23.1134C30.2611 22.0094 29.6442 21.0354 28.8143 20.2956L32.4539 12.936L36.1302 20.4355ZM20.4522 2.27331H44.4459L38.7789 18.9874C38.5333 19.0464 38.2937 19.1206 38.0611 19.2098L32.4629 7.78961L26.8488 19.1416C26.6061 19.0581 26.3561 18.9908 26.1001 18.9398L20.4522 2.27331ZM43.6458 24.618C43.6458 24.9707 43.5931 25.3112 43.4961 25.6326C43.2652 26.3974 42.7805 27.0526 42.1404 27.5007C41.5698 27.9001 40.8763 28.1354 40.1285 28.1354C38.5044 28.1354 37.1344 27.0287 36.7317 25.5299C36.6535 25.2389 36.6111 24.9333 36.6111 24.618C36.6111 24.1372 36.7083 23.6788 36.8836 23.2611C36.974 23.0458 37.0868 22.8423 37.2162 22.6512C37.8492 21.7169 38.9175 21.1006 40.1285 21.1006C40.2395 21.1006 40.3491 21.1064 40.4575 21.1166C42.2433 21.283 43.6458 22.7895 43.6458 24.618ZM45.9191 24.618C45.9191 21.7909 43.8823 19.4321 41.1994 18.9282L47.6171 0H17.2815L23.7089 18.9667C21.1191 19.543 19.1766 21.8572 19.1766 24.618C19.1766 26.6911 20.2722 28.5121 21.9141 29.5353C21.1244 30.712 20.1878 31.8192 19.1146 32.8317C17.4125 34.4375 15.5163 35.6552 13.4721 36.4564C11.413 35.163 10.5426 32.7239 11.4465 30.5989L11.5174 30.4324C11.5617 30.3284 11.606 30.2241 11.6502 30.1199C13.9118 29.3311 15.5394 27.1785 15.5394 24.6514C15.5394 21.4584 12.9417 18.8608 9.74872 18.8608C6.55574 18.8608 3.95803 21.4584 3.95803 24.6514C3.95803 26.2631 4.62047 27.7226 5.68665 28.7734C5.49342 29.1852 5.28996 29.6041 5.08116 30.0329C4.10636 32.0352 3.00153 34.3045 2.5837 36.8245C1.75382 41.8292 3.09246 45.8298 6.35296 48.0896C8.33154 49.4609 10.3407 50 12.3627 50C16.17 50 20.0214 48.0872 23.7882 46.2162C26.5011 44.8688 29.3064 43.4754 32.0773 42.792C33.1082 42.5377 34.1692 42.3848 35.2924 42.2228C37.5197 41.9014 39.8229 41.5693 41.863 40.3878C44.2278 39.018 45.8466 36.7203 46.3044 34.0841C46.6973 31.8209 46.2245 29.5541 45.0711 27.6318C45.6087 26.7532 45.9191 25.7213 45.9191 24.618Z" fill="white"/>
</svg>
