<svg width="50" height="50" viewBox="0 0 50 50" fill="none" xmlns="http://www.w3.org/2000/svg">
<path d="M25 9.96094C18.3333 9.96094 14.1667 13.2943 12.5 19.9609C15 16.6276 17.9167 15.3776 21.25 16.2109C23.1519 16.6864 24.5112 18.0661 26.0158 19.5934C28.4669 22.0814 31.3038 24.9609 37.5 24.9609C44.1667 24.9609 48.3333 21.6276 50 14.9609C47.5 18.2943 44.5833 19.5443 41.25 18.7109C39.3481 18.2355 37.9888 16.8558 36.4842 15.3284C34.0331 12.8405 31.1962 9.96094 25 9.96094ZM12.5 24.9609C5.83333 24.9609 1.66667 28.2943 0 34.9609C2.5 31.6276 5.41667 30.3776 8.75 31.2109C10.6519 31.6864 12.0112 33.0661 13.5158 34.5934C15.9669 37.0814 18.8038 39.9609 25 39.9609C31.6667 39.9609 35.8333 36.6276 37.5 29.9609C35 33.2943 32.0833 34.5443 28.75 33.7109C26.8481 33.2355 25.4888 31.8558 23.9842 30.3284C21.5331 27.8405 18.6962 24.9609 12.5 24.9609Z" fill="url(#paint0_linear_158_1223)"/>
<path d="M25 9.96094C18.3333 9.96094 14.1667 13.2943 12.5 19.9609C15 16.6276 17.9167 15.3776 21.25 16.2109C23.1519 16.6864 24.5112 18.0661 26.0158 19.5934C28.4669 22.0814 31.3038 24.9609 37.5 24.9609C44.1667 24.9609 48.3333 21.6276 50 14.9609C47.5 18.2943 44.5833 19.5443 41.25 18.7109C39.3481 18.2355 37.9888 16.8558 36.4842 15.3284C34.0331 12.8405 31.1962 9.96094 25 9.96094ZM12.5 24.9609C5.83333 24.9609 1.66667 28.2943 0 34.9609C2.5 31.6276 5.41667 30.3776 8.75 31.2109C10.6519 31.6864 12.0112 33.0661 13.5158 34.5934C15.9669 37.0814 18.8038 39.9609 25 39.9609C31.6667 39.9609 35.8333 36.6276 37.5 29.9609C35 33.2943 32.0833 34.5443 28.75 33.7109C26.8481 33.2355 25.4888 31.8558 23.9842 30.3284C21.5331 27.8405 18.6962 24.9609 12.5 24.9609Z" fill="url(#paint1_linear_158_1223)"/>
<defs>
<linearGradient id="paint0_linear_158_1223" x1="-1.38889" y1="19.5609" x2="41.7943" y2="44.4594" gradientUnits="userSpaceOnUse">
<stop stop-color="#2298BD"/>
<stop offset="1" stop-color="#0ED7B5"/>
</linearGradient>
<linearGradient id="paint1_linear_158_1223" x1="-1.38889" y1="19.5609" x2="41.7943" y2="44.4594" gradientUnits="userSpaceOnUse">
<stop stop-color="#2298BD"/>
<stop offset="1" stop-color="#0ED7B5"/>
</linearGradient>
</defs>
</svg>
