<svg width="50" height="50" viewBox="0 0 50 50" fill="none" xmlns="http://www.w3.org/2000/svg">
<g clip-path="url(#clip0_158_1256)">
<mask id="mask0_158_1256" style="mask-type:alpha" maskUnits="userSpaceOnUse" x="0" y="0" width="50" height="50">
<path d="M35.3179 49.7254C36.1023 50.0335 36.9969 50.0137 37.7887 49.6297L48.0428 44.6568C49.1202 44.1343 49.8054 43.035 49.8054 41.8293V8.10965C49.8054 6.90389 49.1202 5.80481 48.0428 5.28225L37.7887 0.309158C36.7496 -0.194768 35.5335 -0.0713376 34.6216 0.596886C34.4912 0.692344 34.3671 0.798924 34.2508 0.916378L14.6204 18.9665L6.06988 12.4248C5.27391 11.8158 4.16056 11.8657 3.4213 12.5435L0.678863 15.0578C-0.225395 15.8868 -0.226432 17.3206 0.676624 18.151L8.09195 24.9694L0.676624 31.7878C-0.226432 32.6182 -0.225395 34.052 0.678863 34.881L3.4213 37.3952C4.16056 38.0731 5.27391 38.1229 6.06988 37.5141L14.6204 30.9723L34.2508 49.0225C34.5613 49.3356 34.9259 49.5715 35.3179 49.7254ZM37.3617 13.574L22.4667 24.9694L37.3617 36.3648V13.574Z" fill="white"/>
</mask>
<g mask="url(#mask0_158_1256)">
<path d="M48.0732 5.28995L37.8111 0.310007C36.6234 -0.266419 35.2037 -0.0232697 34.2715 0.916288L0.677035 31.7878C-0.22657 32.6182 -0.225532 34.0519 0.679276 34.881L3.42338 37.3952C4.1631 38.0731 5.27713 38.1229 6.07357 37.514L46.529 6.58187C47.8862 5.54415 49.8357 6.51979 49.8357 8.23678V8.1167C49.8357 6.91147 49.1506 5.81279 48.0732 5.28995Z" fill="#0065A9"/>
<path d="M48.0732 44.6488L37.8111 49.6287C36.6234 50.205 35.2037 49.9619 34.2715 49.0225L0.677035 18.151C-0.22657 17.3206 -0.225532 15.8868 0.679276 15.0577L3.42338 12.5435C4.1631 11.8657 5.27713 11.8158 6.07357 12.4248L46.529 43.3568C47.8862 44.3945 49.8357 43.4189 49.8357 41.7018V41.822C49.8357 43.0272 49.1506 44.1258 48.0732 44.6488Z" fill="#007ACC"/>
<path d="M37.779 49.6328C36.5908 50.2087 35.1712 49.9653 34.2389 49.0257C35.3875 50.1834 37.3517 49.3633 37.3517 47.726V2.21908C37.3517 0.58177 35.3875 -0.238205 34.2389 0.919553C35.1712 -0.0200925 36.5908 -0.263585 37.779 0.312332L48.0393 5.28543C49.1175 5.80799 49.8031 6.90707 49.8031 8.11283V41.8325C49.8031 43.0383 49.1175 44.1373 48.0393 44.6599L37.779 49.6328Z" fill="#1F9CF0"/>
<path d="M35.3179 49.7253C36.1024 50.0332 36.9969 50.0136 37.7886 49.6296L48.0427 44.6565C49.1203 44.134 49.8055 43.0349 49.8055 41.8292V8.10952C49.8055 6.90376 49.1203 5.80469 48.0429 5.28212L37.7886 0.309037C36.7497 -0.19489 35.5335 -0.07146 34.6214 0.596763C34.4913 0.692221 34.3672 0.798801 34.2506 0.916255L14.6204 18.9663L6.06987 12.4247C5.27392 11.8157 4.16055 11.8656 3.42129 12.5434L0.678863 15.0577C-0.225395 15.8867 -0.226432 17.3205 0.676624 18.1509L8.09196 24.9693L0.676624 31.7877C-0.226432 32.6181 -0.225395 34.0519 0.678863 34.881L3.42129 37.3951C4.16055 38.073 5.27392 38.1228 6.06987 37.514L14.6204 30.9722L34.2506 49.0224C34.5611 49.3355 34.9259 49.5714 35.3179 49.7253ZM37.3617 13.5738L22.4668 24.9693L37.3617 36.3647V13.5738Z" fill="url(#paint0_linear_158_1256)" fill-opacity="0.25"/>
</g>
</g>
<defs>
<linearGradient id="paint0_linear_158_1256" x1="24.9028" y1="-0.000122266" x2="24.9028" y2="49.9387" gradientUnits="userSpaceOnUse">
<stop stop-color="white"/>
<stop offset="1" stop-color="white" stop-opacity="0"/>
</linearGradient>
<clipPath id="clip0_158_1256">
<rect width="50" height="50" fill="white"/>
</clipPath>
</defs>
</svg>
